<svg xmlns="http://www.w3.org/2000/svg" viewBox="0 0 600 350" width="100%" height="100%">
  <!-- Leg Shadows -->
  <ellipse cx="70" cy="325" rx="30" ry="8" fill="#000000" opacity="0.2"/>
  <ellipse cx="530" cy="325" rx="30" ry="8" fill="#000000" opacity="0.2"/>

  <!-- Light Birch Legs -->
  <polygon points="50,120 70,120 90,325 70,325" fill="#D4B88C"/>
  <polygon points="70,120 75,120 95,325 90,325" fill="#C4A87C"/>

  <polygon points="530,120 550,120 530,325 510,325" fill="#D4B88C"/>
  <polygon points="530,120 535,120 515,325 510,325" fill="#B4986C"/>

  <!-- Clean Matte White Desktop Surface -->
  <rect x="25" y="112" width="550" height="18" rx="4" fill="#E2E8F0"/>
  <path d="M 35 95 L 565 95 L 575 112 L 25 112 Z" fill="#F8FAFC"/>
  <path d="M 35 95 L 565 95 L 575 112 L 25 112 Z" fill="#FFFFFF" opacity="0.6"/>
</svg>
